# xmcd CD database file
#
# Track frame offsets:
#	150
#	24892
#	43791
#	72599
#	104389
#	124018
#	145826
#	168332
#	196680
#	219364
#
# Disc length: 3214 seconds
#
# Revision: 0
# Processed by: cddbd v1.5.2PL0 Copyright (c) Steve Scherf et al.
# Submitted via: CDex 1.51
#
DISCID=870c8c0a
DTITLE=Kims Bacon - Live 2002
DYEAR=2002
DGENRE=Jazz
TTITLE0=Fly Me To The Moon
TTITLE1=Exactly Like You
TTITLE2=I Want A Little Girl
TTITLE3=Doggin' Around
TTITLE4=Hey Little Girl
TTITLE5=I'm Confessin'
TTITLE6=When You're Smilin'
TTITLE7=Georgia On My Mind
TTITLE8=Caledonia
TTITLE9=When The Saints Go Marchin' In
EXTD=YEAR: 2002
EXTT0=
EXTT1=
EXTT2=
EXTT3=
EXTT4=
EXTT5=
EXTT6=
EXTT7=
EXTT8=
EXTT9=
PLAYORDER=
